<svg width="148" height="20" viewBox="0 0 148 20" fill="none" xmlns="http://www.w3.org/2000/svg">
<g clip-path="url(#clip0_4001_2688)">
<rect width="148" height="20" rx="3" fill="url(#paint0_linear_4001_2688)"/>
<path d="M9.86596 6.96475C8.83779 8.10654 7.9962 9.05042 8.00001 9.06945C8.00001 9.08467 8.8416 10.0247 9.86596 11.1627C10.8903 12.2969 11.7433 13.2218 11.7624 13.2179C11.7814 13.2103 12.0251 12.9591 12.2993 12.6547C12.5735 12.3502 12.7944 12.0914 12.7867 12.0762C12.7791 12.0647 12.1775 11.3873 11.4425 10.5766C10.7114 9.76594 10.1097 9.08087 10.1097 9.05803C10.1097 9.03139 10.7114 8.35012 11.4425 7.53565C12.1775 6.72498 12.7753 6.0399 12.7715 6.01707C12.7715 5.99423 12.5506 5.73162 12.2765 5.43095C12.0061 5.13408 11.7738 4.8905 11.7586 4.8905C11.7433 4.8905 10.8941 5.82296 9.86596 6.96475ZM13.1828 14.3407L13.1942 15.1095H17.5354L17.543 13.5681H13.1752L13.1828 14.3407ZM13.8378 5.30155C13.6321 5.5261 13.396 5.7811 13.3199 5.86483L13.1752 6.01707C15.2963 8.36154 15.9132 9.05042 15.9132 9.06184C15.9132 9.06945 15.3001 9.75833 14.5461 10.5918L13.1752 12.1066C13.6969 12.6661 13.933 12.9211 14.0396 13.0391L14.2338 13.2484C14.4052 13.0695 15.2544 12.1333 16.233 11.0486C17.2079 9.96385 18.0038 9.06564 18 9.04661C17.9924 9.03139 17.1508 8.08751 16.1226 6.95333C15.0982 5.81916 14.2452 4.8905 14.2338 4.8905C14.2224 4.8905 14.0434 5.077 13.8378 5.30155Z" fill="#CBD5E1"/>
<g filter="url(#filter0_d_4001_2688)">
<path d="M29.5859 8V8.9375H26.3086V8H29.5859ZM27.1875 6.5625H28.3555V12.2383C28.3555 12.4648 28.3893 12.6354 28.457 12.75C28.5247 12.862 28.612 12.9388 28.7188 12.9805C28.8281 13.0195 28.9466 13.0391 29.0742 13.0391C29.168 13.0391 29.25 13.0326 29.3203 13.0195C29.3906 13.0065 29.4453 12.9961 29.4844 12.9883L29.6953 13.9531C29.6276 13.9792 29.5313 14.0052 29.4063 14.0313C29.2813 14.0599 29.125 14.0755 28.9375 14.0781C28.6302 14.0833 28.3438 14.0286 28.0781 13.9141C27.8125 13.7995 27.5977 13.6224 27.4336 13.3828C27.2695 13.1432 27.1875 12.8424 27.1875 12.4805V6.5625ZM33.5094 14.1211C32.9183 14.1211 32.4092 13.9948 31.9821 13.7422C31.5576 13.487 31.2295 13.1289 30.9977 12.668C30.7685 12.2044 30.6539 11.6615 30.6539 11.0391C30.6539 10.4245 30.7685 9.88281 30.9977 9.41406C31.2295 8.94531 31.5524 8.57943 31.9664 8.31641C32.3831 8.05339 32.8701 7.92188 33.4274 7.92188C33.7659 7.92188 34.094 7.97786 34.4118 8.08984C34.7295 8.20182 35.0146 8.3776 35.2672 8.61719C35.5198 8.85677 35.719 9.16797 35.8649 9.55078C36.0107 9.93099 36.0836 10.3932 36.0836 10.9375V11.3516H31.3141V10.4766H34.9391C34.9391 10.1693 34.8766 9.89714 34.7516 9.66016C34.6266 9.42057 34.4508 9.23177 34.2243 9.09375C34.0003 8.95573 33.7373 8.88672 33.4352 8.88672C33.1071 8.88672 32.8206 8.96745 32.5758 9.12891C32.3336 9.28776 32.1461 9.49609 32.0133 9.75391C31.8831 10.0091 31.818 10.2865 31.818 10.5859V11.2695C31.818 11.6706 31.8883 12.0117 32.0289 12.293C32.1722 12.5742 32.3714 12.7891 32.6266 12.9375C32.8818 13.0833 33.18 13.1562 33.5211 13.1562C33.7425 13.1562 33.9443 13.125 34.1266 13.0625C34.3089 12.9974 34.4664 12.901 34.5993 12.7734C34.7321 12.6458 34.8336 12.4883 34.9039 12.3008L36.0094 12.5C35.9209 12.8255 35.762 13.1107 35.5329 13.3555C35.3063 13.5977 35.0211 13.7865 34.6774 13.9219C34.3362 14.0547 33.9469 14.1211 33.5094 14.1211ZM41.9856 9.46484L40.927 9.65234C40.8828 9.51693 40.8124 9.38802 40.7161 9.26562C40.6223 9.14323 40.4947 9.04297 40.3333 8.96484C40.1718 8.88672 39.97 8.84766 39.7278 8.84766C39.3971 8.84766 39.121 8.92187 38.8997 9.07031C38.6783 9.21615 38.5677 9.40495 38.5677 9.63672C38.5677 9.83724 38.6419 9.9987 38.7903 10.1211C38.9388 10.2435 39.1783 10.3437 39.5091 10.4219L40.4622 10.6406C41.0143 10.7682 41.4257 10.9648 41.6966 11.2305C41.9674 11.4961 42.1028 11.8411 42.1028 12.2656C42.1028 12.625 41.9986 12.9453 41.7903 13.2266C41.5846 13.5052 41.2968 13.724 40.927 13.8828C40.5598 14.0417 40.1341 14.1211 39.6497 14.1211C38.9778 14.1211 38.4296 13.9779 38.0052 13.6914C37.5807 13.4023 37.3203 12.9922 37.2239 12.4609L38.3528 12.2891C38.4231 12.5833 38.5677 12.806 38.7864 12.957C39.0052 13.1055 39.2903 13.1797 39.6419 13.1797C40.0247 13.1797 40.3307 13.1003 40.5598 12.9414C40.789 12.7799 40.9036 12.5833 40.9036 12.3516C40.9036 12.1641 40.8333 12.0065 40.6927 11.8789C40.5546 11.7513 40.3424 11.6549 40.0559 11.5898L39.0403 11.3672C38.4804 11.2396 38.0664 11.0365 37.7981 10.7578C37.5325 10.4792 37.3997 10.1263 37.3997 9.69922C37.3997 9.34505 37.4986 9.03516 37.6966 8.76953C37.8945 8.50391 38.1679 8.29687 38.5169 8.14844C38.8658 7.9974 39.2656 7.92188 39.7161 7.92188C40.3645 7.92188 40.8749 8.0625 41.2473 8.34375C41.6197 8.6224 41.8658 8.99609 41.9856 9.46484ZM46.2978 8V8.9375H43.0204V8H46.2978ZM43.8993 6.5625H45.0673V12.2383C45.0673 12.4648 45.1012 12.6354 45.1689 12.75C45.2366 12.862 45.3238 12.9388 45.4306 12.9805C45.54 13.0195 45.6585 13.0391 45.7861 13.0391C45.8798 13.0391 45.9618 13.0326 46.0321 13.0195C46.1025 13.0065 46.1571 12.9961 46.1962 12.9883L46.4071 13.9531C46.3394 13.9792 46.2431 14.0052 46.1181 14.0313C45.9931 14.0599 45.8368 14.0755 45.6493 14.0781C45.342 14.0833 45.0556 14.0286 44.79 13.9141C44.5243 13.7995 44.3095 13.6224 44.1454 13.3828C43.9814 13.1432 43.8993 12.8424 43.8993 12.4805V6.5625ZM53.2482 14.1211C52.6675 14.1211 52.1675 13.9896 51.7482 13.7266C51.3316 13.4609 51.0113 13.0951 50.7873 12.6289C50.5633 12.1628 50.4514 11.6289 50.4514 11.0273C50.4514 10.418 50.5659 9.88021 50.7951 9.41406C51.0243 8.94531 51.3472 8.57943 51.7639 8.31641C52.1805 8.05339 52.6714 7.92188 53.2365 7.92188C53.6923 7.92188 54.0985 8.00651 54.4553 8.17578C54.812 8.34245 55.0998 8.57682 55.3186 8.87891C55.5399 9.18099 55.6714 9.53385 55.7131 9.9375H54.5764C54.5139 9.65625 54.3706 9.41406 54.1467 9.21094C53.9253 9.00781 53.6284 8.90625 53.2561 8.90625C52.9305 8.90625 52.6454 8.99219 52.4006 9.16406C52.1584 9.33333 51.9696 9.57552 51.8342 9.89062C51.6988 10.2031 51.6311 10.5729 51.6311 11C51.6311 11.4375 51.6975 11.8151 51.8303 12.1328C51.9631 12.4505 52.1506 12.6966 52.3928 12.8711C52.6376 13.0456 52.9253 13.1328 53.2561 13.1328C53.4774 13.1328 53.6779 13.0924 53.8576 13.0117C54.0399 12.9284 54.1923 12.8099 54.3146 12.6562C54.4396 12.5026 54.5269 12.3177 54.5764 12.1016H55.7131C55.6714 12.4896 55.5451 12.8359 55.3342 13.1406C55.1232 13.4453 54.8407 13.6849 54.4865 13.8594C54.135 14.0339 53.7222 14.1211 53.2482 14.1211ZM59.5995 14.1211C59.037 14.1211 58.5461 13.9922 58.1268 13.7344C57.7075 13.4766 57.382 13.1159 57.1502 12.6523C56.9185 12.1888 56.8026 11.6471 56.8026 11.0273C56.8026 10.4049 56.9185 9.86068 57.1502 9.39453C57.382 8.92839 57.7075 8.56641 58.1268 8.30859C58.5461 8.05078 59.037 7.92188 59.5995 7.92188C60.162 7.92188 60.6528 8.05078 61.0721 8.30859C61.4914 8.56641 61.8169 8.92839 62.0487 9.39453C62.2804 9.86068 62.3963 10.4049 62.3963 11.0273C62.3963 11.6471 62.2804 12.1888 62.0487 12.6523C61.8169 13.1159 61.4914 13.4766 61.0721 13.7344C60.6528 13.9922 60.162 14.1211 59.5995 14.1211ZM59.6034 13.1406C59.9679 13.1406 60.27 13.0443 60.5096 12.8516C60.7492 12.6589 60.9263 12.4023 61.0409 12.082C61.158 11.7617 61.2166 11.4089 61.2166 11.0234C61.2166 10.6406 61.158 10.2891 61.0409 9.96875C60.9263 9.64583 60.7492 9.38672 60.5096 9.19141C60.27 8.99609 59.9679 8.89844 59.6034 8.89844C59.2362 8.89844 58.9315 8.99609 58.6893 9.19141C58.4497 9.38672 58.2713 9.64583 58.1541 9.96875C58.0396 10.2891 57.9823 10.6406 57.9823 11.0234C57.9823 11.4089 58.0396 11.7617 58.1541 12.082C58.2713 12.4023 58.4497 12.6589 58.6893 12.8516C58.9315 13.0443 59.2362 13.1406 59.6034 13.1406ZM68.7388 8L66.563 14H65.313L63.1333 8H64.3872L65.9067 12.6172H65.9692L67.4848 8H68.7388ZM72.3282 14.1211C71.7371 14.1211 71.228 13.9948 70.8009 13.7422C70.3764 13.487 70.0483 13.1289 69.8165 12.668C69.5874 12.2044 69.4728 11.6615 69.4728 11.0391C69.4728 10.4245 69.5874 9.88281 69.8165 9.41406C70.0483 8.94531 70.3712 8.57943 70.7853 8.31641C71.2019 8.05339 71.6889 7.92188 72.2462 7.92188C72.5848 7.92188 72.9129 7.97786 73.2306 8.08984C73.5483 8.20182 73.8335 8.3776 74.0861 8.61719C74.3387 8.85677 74.5379 9.16797 74.6837 9.55078C74.8295 9.93099 74.9025 10.3932 74.9025 10.9375V11.3516H70.1329V10.4766H73.7579C73.7579 10.1693 73.6954 9.89714 73.5704 9.66016C73.4454 9.42057 73.2696 9.23177 73.0431 9.09375C72.8191 8.95573 72.5561 8.88672 72.254 8.88672C71.9259 8.88672 71.6394 8.96745 71.3946 9.12891C71.1525 9.28776 70.965 9.49609 70.8321 9.75391C70.7019 10.0091 70.6368 10.2865 70.6368 10.5859V11.2695C70.6368 11.6706 70.7071 12.0117 70.8478 12.293C70.991 12.5742 71.1902 12.7891 71.4454 12.9375C71.7006 13.0833 71.9988 13.1562 72.34 13.1562C72.5613 13.1562 72.7631 13.125 72.9454 13.0625C73.1277 12.9974 73.2853 12.901 73.4181 12.7734C73.5509 12.6458 73.6525 12.4883 73.7228 12.3008L74.8282 12.5C74.7397 12.8255 74.5808 13.1107 74.3517 13.3555C74.1251 13.5977 73.84 13.7865 73.4962 13.9219C73.1551 14.0547 72.7657 14.1211 72.3282 14.1211ZM76.3084 14V8H77.4373V8.95312H77.4998C77.6091 8.63021 77.8019 8.3763 78.0779 8.19141C78.3565 8.00391 78.6716 7.91016 79.0232 7.91016C79.0961 7.91016 79.1821 7.91276 79.281 7.91797C79.3826 7.92318 79.462 7.92969 79.5193 7.9375V9.05469C79.4724 9.04167 79.3891 9.02734 79.2693 9.01172C79.1495 8.99349 79.0297 8.98437 78.9099 8.98437C78.6339 8.98437 78.3878 9.04297 78.1716 9.16016C77.9581 9.27474 77.7888 9.4349 77.6638 9.64062C77.5388 9.84375 77.4763 10.0755 77.4763 10.3359V14H76.3084ZM82.3324 14.1328C81.9522 14.1328 81.6085 14.0625 81.3012 13.9219C80.9939 13.7786 80.7504 13.5716 80.5707 13.3008C80.3936 13.0299 80.3051 12.6979 80.3051 12.3047C80.3051 11.9661 80.3702 11.6875 80.5004 11.4687C80.6306 11.25 80.8064 11.0768 81.0277 10.9492C81.2491 10.8216 81.4965 10.7253 81.7699 10.6602C82.0434 10.5951 82.322 10.5456 82.6059 10.5117C82.9652 10.4701 83.2569 10.4362 83.4809 10.4102C83.7048 10.3815 83.8676 10.3359 83.9691 10.2734C84.0707 10.2109 84.1215 10.1094 84.1215 9.96875V9.94141C84.1215 9.60026 84.0251 9.33594 83.8324 9.14844C83.6423 8.96094 83.3585 8.86719 82.9809 8.86719C82.5876 8.86719 82.2777 8.95443 82.0512 9.12891C81.8272 9.30078 81.6723 9.49219 81.5863 9.70312L80.4887 9.45312C80.6189 9.08854 80.809 8.79427 81.059 8.57031C81.3116 8.34375 81.602 8.17969 81.9301 8.07812C82.2582 7.97396 82.6033 7.92188 82.9652 7.92188C83.2048 7.92188 83.4587 7.95052 83.727 8.00781C83.9978 8.0625 84.2504 8.16406 84.4848 8.3125C84.7217 8.46094 84.9158 8.67318 85.0668 8.94922C85.2178 9.22266 85.2934 9.57813 85.2934 10.0156V14H84.1527V13.1797H84.1059C84.0303 13.3307 83.9171 13.4792 83.766 13.625C83.615 13.7708 83.421 13.8919 83.184 13.9883C82.947 14.0846 82.6631 14.1328 82.3324 14.1328ZM82.5863 13.1953C82.9092 13.1953 83.1853 13.1315 83.4145 13.0039C83.6462 12.8763 83.822 12.7096 83.9418 12.5039C84.0642 12.2956 84.1254 12.0729 84.1254 11.8359V11.0625C84.0837 11.1042 84.003 11.1432 83.8832 11.1797C83.766 11.2135 83.6319 11.2435 83.4809 11.2695C83.3298 11.293 83.1827 11.3151 83.0395 11.3359C82.8962 11.3542 82.7764 11.3698 82.6801 11.3828C82.4535 11.4115 82.2465 11.4596 82.059 11.5273C81.8741 11.5951 81.7256 11.6927 81.6137 11.8203C81.5043 11.9453 81.4496 12.112 81.4496 12.3203C81.4496 12.6094 81.5564 12.8281 81.7699 12.9766C81.9835 13.1224 82.2556 13.1953 82.5863 13.1953ZM89.4746 16.375C88.9981 16.375 88.5879 16.3125 88.2442 16.1875C87.903 16.0625 87.6244 15.8971 87.4082 15.6914C87.1921 15.4857 87.0306 15.2604 86.9239 15.0156L87.9278 14.6016C87.9981 14.7161 88.0918 14.8372 88.209 14.9648C88.3288 15.0951 88.4903 15.2057 88.6934 15.2969C88.8991 15.388 89.1634 15.4336 89.4864 15.4336C89.9291 15.4336 90.295 15.3255 90.584 15.1094C90.8731 14.8958 91.0176 14.5547 91.0176 14.0859V12.9062H90.9434C90.8731 13.0339 90.7715 13.1758 90.6387 13.332C90.5085 13.4883 90.3288 13.6237 90.0996 13.7383C89.8705 13.8529 89.5723 13.9102 89.2051 13.9102C88.7312 13.9102 88.3041 13.7995 87.9239 13.5781C87.5463 13.3542 87.2468 13.0247 87.0254 12.5898C86.8067 12.1523 86.6973 11.6146 86.6973 10.9766C86.6973 10.3385 86.8054 9.79167 87.0215 9.33594C87.2403 8.88021 87.5398 8.53125 87.92 8.28906C88.3002 8.04427 88.7312 7.92188 89.2129 7.92188C89.5853 7.92188 89.8861 7.98438 90.1153 8.10937C90.3444 8.23177 90.5228 8.375 90.6504 8.53906C90.7806 8.70312 90.8809 8.84766 90.9512 8.97266H91.0371V8H92.1817V14.1328C92.1817 14.6484 92.0619 15.0716 91.8223 15.4023C91.5827 15.7331 91.2585 15.9779 90.8496 16.1367C90.4434 16.2956 89.9851 16.375 89.4746 16.375ZM89.4629 12.9414C89.7989 12.9414 90.0827 12.8633 90.3145 12.707C90.5489 12.5482 90.7259 12.3216 90.8457 12.0273C90.9681 11.7305 91.0293 11.375 91.0293 10.9609C91.0293 10.5573 90.9694 10.2018 90.8496 9.89453C90.7299 9.58724 90.5541 9.34766 90.3223 9.17578C90.0905 9.0013 89.8041 8.91406 89.4629 8.91406C89.1114 8.91406 88.8184 9.00521 88.584 9.1875C88.3496 9.36719 88.1726 9.61198 88.0528 9.92187C87.9356 10.2318 87.877 10.5781 87.877 10.9609C87.877 11.3542 87.9369 11.6992 88.0567 11.9961C88.1765 12.293 88.3536 12.5247 88.5879 12.6914C88.8249 12.8581 89.1166 12.9414 89.4629 12.9414ZM96.444 14.1211C95.8529 14.1211 95.3438 13.9948 94.9167 13.7422C94.4922 13.487 94.1641 13.1289 93.9323 12.668C93.7031 12.2044 93.5886 11.6615 93.5886 11.0391C93.5886 10.4245 93.7031 9.88281 93.9323 9.41406C94.1641 8.94531 94.487 8.57943 94.9011 8.31641C95.3177 8.05339 95.8047 7.92188 96.362 7.92188C96.7005 7.92188 97.0287 7.97786 97.3464 8.08984C97.6641 8.20182 97.9492 8.3776 98.2018 8.61719C98.4544 8.85677 98.6537 9.16797 98.7995 9.55078C98.9453 9.93099 99.0182 10.3932 99.0182 10.9375V11.3516H94.2487V10.4766H97.8737C97.8737 10.1693 97.8112 9.89714 97.6862 9.66016C97.5612 9.42057 97.3854 9.23177 97.1589 9.09375C96.9349 8.95573 96.6719 8.88672 96.3698 8.88672C96.0417 8.88672 95.7552 8.96745 95.5104 9.12891C95.2682 9.28776 95.0807 9.49609 94.9479 9.75391C94.8177 10.0091 94.7526 10.2865 94.7526 10.5859V11.2695C94.7526 11.6706 94.8229 12.0117 94.9636 12.293C95.1068 12.5742 95.306 12.7891 95.5612 12.9375C95.8164 13.0833 96.1146 13.1562 96.4557 13.1562C96.6771 13.1562 96.8789 13.125 97.0612 13.0625C97.2435 12.9974 97.4011 12.901 97.5339 12.7734C97.6667 12.6458 97.7682 12.4883 97.8386 12.3008L98.944 12.5C98.8555 12.8255 98.6966 13.1107 98.4675 13.3555C98.2409 13.5977 97.9557 13.7865 97.612 13.9219C97.2708 14.0547 96.8815 14.1211 96.444 14.1211Z" fill="white"/>
</g>
<g clip-path="url(#clip1_4001_2688)">
<rect width="40" height="20" transform="translate(108)" fill="#EF4444"/>
<g style="mix-blend-mode:plus-darker">
<rect x="108" width="40" height="20" fill="url(#paint1_linear_4001_2688)"/>
</g>
<g style="mix-blend-mode:overlay" opacity="0.5">
<rect x="108" width="1" height="20" fill="white"/>
</g>
<g style="mix-blend-mode:overlay" opacity="0.5">
<rect x="109" width="39" height="1" fill="white"/>
</g>
<g filter="url(#filter1_d_4001_2688)">
<path d="M120.57 14.1094C120.018 14.1094 119.526 14.0078 119.094 13.8047C118.664 13.6016 118.323 13.3216 118.07 12.9648C117.818 12.6081 117.686 12.1992 117.676 11.7383H119.316C119.335 12.0482 119.465 12.2995 119.707 12.4922C119.949 12.6849 120.237 12.7812 120.57 12.7812C120.836 12.7812 121.07 12.7227 121.273 12.6055C121.479 12.4857 121.639 12.3203 121.754 12.1094C121.871 11.8958 121.93 11.651 121.93 11.375C121.93 11.0937 121.87 10.8464 121.75 10.6328C121.633 10.4193 121.47 10.2526 121.262 10.1328C121.053 10.013 120.815 9.95182 120.547 9.94922C120.313 9.94922 120.085 9.9974 119.863 10.0937C119.645 10.1901 119.474 10.3216 119.352 10.4883L117.848 10.2188L118.227 6H123.117V7.38281H119.621L119.414 9.38672H119.461C119.602 9.1888 119.814 9.02474 120.098 8.89453C120.382 8.76432 120.699 8.69922 121.051 8.69922C121.533 8.69922 121.962 8.8125 122.34 9.03906C122.717 9.26562 123.016 9.57682 123.234 9.97266C123.453 10.3659 123.561 10.819 123.559 11.332C123.561 11.8711 123.436 12.3503 123.184 12.7695C122.934 13.1862 122.583 13.5143 122.133 13.7539C121.685 13.9909 121.164 14.1094 120.57 14.1094ZM127.779 6V14H126.087V7.60547H126.04L124.208 8.75391V7.25391L126.189 6H127.779ZM133.619 12.5V12.0781C133.619 11.7578 133.687 11.4635 133.822 11.1953C133.96 10.9245 134.159 10.7083 134.42 10.5469C134.683 10.3828 135.003 10.3008 135.381 10.3008C135.764 10.3008 136.085 10.3815 136.346 10.543C136.609 10.7044 136.807 10.9206 136.939 11.1914C137.075 11.4596 137.142 11.7552 137.142 12.0781V12.5C137.142 12.8203 137.075 13.1159 136.939 13.3867C136.804 13.6549 136.605 13.8698 136.342 14.0313C136.079 14.1953 135.758 14.2773 135.381 14.2773C134.998 14.2773 134.676 14.1953 134.416 14.0313C134.155 13.8698 133.958 13.6549 133.822 13.3867C133.687 13.1159 133.619 12.8203 133.619 12.5ZM134.756 12.0781V12.5C134.756 12.6849 134.8 12.8594 134.889 13.0234C134.98 13.1875 135.144 13.2695 135.381 13.2695C135.618 13.2695 135.779 13.1888 135.865 13.0273C135.954 12.8659 135.998 12.6901 135.998 12.5V12.0781C135.998 11.888 135.956 11.7109 135.873 11.5469C135.79 11.3828 135.626 11.3008 135.381 11.3008C135.146 11.3008 134.984 11.3828 134.892 11.5469C134.801 11.7109 134.756 11.888 134.756 12.0781ZM129.514 7.92188V7.5C129.514 7.17708 129.583 6.88151 129.721 6.61328C129.859 6.34245 130.058 6.1263 130.318 5.96484C130.581 5.80339 130.899 5.72266 131.271 5.72266C131.657 5.72266 131.98 5.80339 132.24 5.96484C132.501 6.1263 132.698 6.34245 132.834 6.61328C132.969 6.88151 133.037 7.17708 133.037 7.5V7.92188C133.037 8.24479 132.968 8.54036 132.83 8.80859C132.695 9.07682 132.495 9.29167 132.232 9.45312C131.972 9.61198 131.652 9.69141 131.271 9.69141C130.891 9.69141 130.57 9.61068 130.307 9.44922C130.046 9.28516 129.848 9.07031 129.713 8.80469C129.58 8.53646 129.514 8.24219 129.514 7.92188ZM130.658 7.5V7.92188C130.658 8.11198 130.702 8.28776 130.791 8.44922C130.882 8.61068 131.042 8.69141 131.271 8.69141C131.511 8.69141 131.674 8.61068 131.76 8.44922C131.848 8.28776 131.892 8.11198 131.892 7.92188V7.5C131.892 7.3099 131.851 7.13281 131.767 6.96875C131.684 6.80469 131.519 6.72266 131.271 6.72266C131.04 6.72266 130.879 6.80599 130.791 6.97266C130.702 7.13932 130.658 7.3151 130.658 7.5ZM130.029 14L135.529 6H136.553L131.053 14H130.029Z" fill="white"/>
</g>
</g>
<g style="mix-blend-mode:overlay" opacity="0.2">
<rect width="108" height="1" fill="white"/>
</g>
</g>
<defs>
<filter id="filter0_d_4001_2688" x="26.3086" y="6.5625" width="72.7096" height="10.8125" filterUnits="userSpaceOnUse" color-interpolation-filters="sRGB">
<feFlood flood-opacity="0" result="BackgroundImageFix"/>
<feColorMatrix in="SourceAlpha" type="matrix" values="0 0 0 0 0 0 0 0 0 0 0 0 0 0 0 0 0 0 127 0" result="hardAlpha"/>
<feOffset dy="1"/>
<feComposite in2="hardAlpha" operator="out"/>
<feColorMatrix type="matrix" values="0 0 0 0 0 0 0 0 0 0 0 0 0 0 0 0 0 0 0.2 0"/>
<feBlend mode="normal" in2="BackgroundImageFix" result="effect1_dropShadow_4001_2688"/>
<feBlend mode="normal" in="SourceGraphic" in2="effect1_dropShadow_4001_2688" result="shape"/>
</filter>
<filter id="filter1_d_4001_2688" x="117.676" y="5.72266" width="19.4667" height="9.55469" filterUnits="userSpaceOnUse" color-interpolation-filters="sRGB">
<feFlood flood-opacity="0" result="BackgroundImageFix"/>
<feColorMatrix in="SourceAlpha" type="matrix" values="0 0 0 0 0 0 0 0 0 0 0 0 0 0 0 0 0 0 127 0" result="hardAlpha"/>
<feOffset dy="1"/>
<feComposite in2="hardAlpha" operator="out"/>
<feColorMatrix type="matrix" values="0 0 0 0 0 0 0 0 0 0 0 0 0 0 0 0 0 0 0.07 0"/>
<feBlend mode="normal" in2="BackgroundImageFix" result="effect1_dropShadow_4001_2688"/>
<feBlend mode="normal" in="SourceGraphic" in2="effect1_dropShadow_4001_2688" result="shape"/>
</filter>
<linearGradient id="paint0_linear_4001_2688" x1="74" y1="20" x2="74" y2="0" gradientUnits="userSpaceOnUse">
<stop stop-color="#334155"/>
<stop offset="1" stop-color="#475569"/>
</linearGradient>
<linearGradient id="paint1_linear_4001_2688" x1="128" y1="20" x2="128" y2="0" gradientUnits="userSpaceOnUse">
<stop stop-opacity="0.1"/>
<stop offset="0.5" stop-opacity="0"/>
</linearGradient>
<clipPath id="clip0_4001_2688">
<rect width="148" height="20" rx="3" fill="white"/>
</clipPath>
<clipPath id="clip1_4001_2688">
<rect width="40" height="20" fill="white" transform="translate(108)"/>
</clipPath>
</defs>
</svg>
