<svg width="137" height="20" viewBox="0 0 137 20" fill="none" xmlns="http://www.w3.org/2000/svg">
<g clip-path="url(#clip0_4001_2809)">
<rect width="137" height="20" rx="3" fill="url(#paint0_linear_4001_2809)"/>
<path d="M9.86596 6.96475C8.83779 8.10654 7.9962 9.05042 8.00001 9.06945C8.00001 9.08467 8.8416 10.0247 9.86596 11.1627C10.8903 12.2969 11.7433 13.2218 11.7624 13.2179C11.7814 13.2103 12.0251 12.9591 12.2993 12.6547C12.5735 12.3502 12.7944 12.0914 12.7867 12.0762C12.7791 12.0647 12.1775 11.3873 11.4425 10.5766C10.7114 9.76594 10.1097 9.08087 10.1097 9.05803C10.1097 9.03139 10.7114 8.35012 11.4425 7.53565C12.1775 6.72498 12.7753 6.0399 12.7715 6.01707C12.7715 5.99423 12.5506 5.73162 12.2765 5.43095C12.0061 5.13408 11.7738 4.8905 11.7586 4.8905C11.7433 4.8905 10.8941 5.82296 9.86596 6.96475ZM13.1828 14.3407L13.1942 15.1095H17.5354L17.543 13.5681H13.1752L13.1828 14.3407ZM13.8378 5.30155C13.6321 5.5261 13.396 5.7811 13.3199 5.86483L13.1752 6.01707C15.2963 8.36154 15.9132 9.05042 15.9132 9.06184C15.9132 9.06945 15.3001 9.75833 14.5461 10.5918L13.1752 12.1066C13.6969 12.6661 13.933 12.9211 14.0396 13.0391L14.2338 13.2484C14.4052 13.0695 15.2544 12.1333 16.233 11.0486C17.2079 9.96385 18.0038 9.06564 18 9.04661C17.9924 9.03139 17.1508 8.08751 16.1226 6.95333C15.0982 5.81916 14.2452 4.8905 14.2338 4.8905C14.2224 4.8905 14.0434 5.077 13.8378 5.30155Z" fill="#CBD5E1"/>
<g filter="url(#filter0_d_4001_2809)">
<path d="M26.7852 14V8H27.9062V8.97656H27.9805C28.1055 8.64583 28.3099 8.38802 28.5938 8.20313C28.8776 8.01563 29.2174 7.92188 29.6133 7.92188C30.0143 7.92188 30.3503 8.01563 30.6211 8.20313C30.8945 8.39062 31.0964 8.64844 31.2266 8.97656H31.2891C31.4323 8.65625 31.6602 8.40104 31.9727 8.21094C32.2852 8.01823 32.6576 7.92188 33.0898 7.92188C33.6341 7.92188 34.0781 8.09245 34.4219 8.43359C34.7682 8.77474 34.9414 9.28906 34.9414 9.97656V14H33.7734V10.0859C33.7734 9.67969 33.6628 9.38542 33.4414 9.20312C33.2201 9.02083 32.9557 8.92969 32.6484 8.92969C32.2682 8.92969 31.9727 9.04687 31.7617 9.28125C31.5508 9.51302 31.4453 9.8112 31.4453 10.1758V14H30.2813V10.0117C30.2813 9.6862 30.1797 9.42448 29.9766 9.22656C29.7734 9.02865 29.5091 8.92969 29.1836 8.92969C28.9622 8.92969 28.7578 8.98828 28.5703 9.10547C28.3854 9.22005 28.2357 9.38021 28.1211 9.58594C28.0091 9.79167 27.9531 10.0299 27.9531 10.3008V14H26.7852ZM38.3629 14.1328C37.9827 14.1328 37.639 14.0625 37.3317 13.9219C37.0244 13.7786 36.7809 13.5716 36.6012 13.3008C36.4241 13.0299 36.3356 12.6979 36.3356 12.3047C36.3356 11.9661 36.4007 11.6875 36.5309 11.4687C36.6611 11.25 36.8369 11.0768 37.0582 10.9492C37.2796 10.8216 37.527 10.7253 37.8004 10.6602C38.0739 10.5951 38.3525 10.5456 38.6364 10.5117C38.9957 10.4701 39.2874 10.4362 39.5114 10.4102C39.7353 10.3815 39.8981 10.3359 39.9996 10.2734C40.1012 10.2109 40.152 10.1094 40.152 9.96875V9.94141C40.152 9.60026 40.0556 9.33594 39.8629 9.14844C39.6728 8.96094 39.389 8.86719 39.0114 8.86719C38.6181 8.86719 38.3082 8.95443 38.0817 9.12891C37.8577 9.30078 37.7028 9.49219 37.6168 9.70312L36.5192 9.45312C36.6494 9.08854 36.8395 8.79427 37.0895 8.57031C37.3421 8.34375 37.6325 8.17969 37.9606 8.07812C38.2887 7.97396 38.6338 7.92188 38.9957 7.92188C39.2353 7.92188 39.4892 7.95052 39.7575 8.00781C40.0283 8.0625 40.2809 8.16406 40.5153 8.3125C40.7523 8.46094 40.9463 8.67318 41.0973 8.94922C41.2483 9.22266 41.3239 9.57813 41.3239 10.0156V14H40.1832V13.1797H40.1364C40.0608 13.3307 39.9476 13.4792 39.7965 13.625C39.6455 13.7708 39.4515 13.8919 39.2145 13.9883C38.9775 14.0846 38.6937 14.1328 38.3629 14.1328ZM38.6168 13.1953C38.9398 13.1953 39.2158 13.1315 39.445 13.0039C39.6767 12.8763 39.8525 12.7096 39.9723 12.5039C40.0947 12.2956 40.1559 12.0729 40.1559 11.8359V11.0625C40.1142 11.1042 40.0335 11.1432 39.9137 11.1797C39.7965 11.2135 39.6624 11.2435 39.5114 11.2695C39.3603 11.293 39.2132 11.3151 39.07 11.3359C38.9267 11.3542 38.8069 11.3698 38.7106 11.3828C38.484 11.4115 38.277 11.4596 38.0895 11.5273C37.9046 11.5951 37.7562 11.6927 37.6442 11.8203C37.5348 11.9453 37.4801 12.112 37.4801 12.3203C37.4801 12.6094 37.5869 12.8281 37.8004 12.9766C38.014 13.1224 38.2861 13.1953 38.6168 13.1953ZM42.9895 14V8H44.1575V14H42.9895ZM43.5794 7.07422C43.3762 7.07422 43.2018 7.00651 43.0559 6.87109C42.9127 6.73307 42.8411 6.56901 42.8411 6.37891C42.8411 6.1862 42.9127 6.02214 43.0559 5.88672C43.2018 5.7487 43.3762 5.67969 43.5794 5.67969C43.7825 5.67969 43.9557 5.7487 44.0989 5.88672C44.2447 6.02214 44.3177 6.1862 44.3177 6.37891C44.3177 6.56901 44.2447 6.73307 44.0989 6.87109C43.9557 7.00651 43.7825 7.07422 43.5794 7.07422ZM47.0068 10.4375V14H45.8388V8H46.9599V8.97656H47.0341C47.1721 8.65885 47.3883 8.40365 47.6825 8.21094C47.9794 8.01823 48.3531 7.92188 48.8036 7.92188C49.2125 7.92188 49.5706 8.00781 49.8779 8.17969C50.1851 8.34896 50.4234 8.60156 50.5927 8.9375C50.762 9.27344 50.8466 9.6888 50.8466 10.1836V14H49.6786V10.3242C49.6786 9.88932 49.5654 9.54948 49.3388 9.30469C49.1122 9.05729 48.801 8.93359 48.4052 8.93359C48.1344 8.93359 47.8935 8.99219 47.6825 9.10937C47.4742 9.22656 47.3088 9.39844 47.1864 9.625C47.0667 9.84896 47.0068 10.1198 47.0068 10.4375ZM55.3238 8V8.9375H52.0464V8H55.3238ZM52.9254 6.5625H54.0933V12.2383C54.0933 12.4648 54.1272 12.6354 54.1949 12.75C54.2626 12.862 54.3498 12.9388 54.4566 12.9805C54.566 13.0195 54.6845 13.0391 54.8121 13.0391C54.9058 13.0391 54.9879 13.0326 55.0582 13.0195C55.1285 13.0065 55.1832 12.9961 55.2222 12.9883L55.4332 13.9531C55.3655 13.9792 55.2691 14.0052 55.1441 14.0313C55.0191 14.0599 54.8629 14.0755 54.6754 14.0781C54.3681 14.0833 54.0816 14.0286 53.816 13.9141C53.5504 13.7995 53.3355 13.6224 53.1714 13.3828C53.0074 13.1432 52.9254 12.8424 52.9254 12.4805V6.5625ZM58.4719 14.1328C58.0917 14.1328 57.7479 14.0625 57.4406 13.9219C57.1333 13.7786 56.8898 13.5716 56.7102 13.3008C56.5331 13.0299 56.4445 12.6979 56.4445 12.3047C56.4445 11.9661 56.5096 11.6875 56.6398 11.4687C56.7701 11.25 56.9458 11.0768 57.1672 10.9492C57.3885 10.8216 57.6359 10.7253 57.9094 10.6602C58.1828 10.5951 58.4615 10.5456 58.7453 10.5117C59.1047 10.4701 59.3964 10.4362 59.6203 10.4102C59.8443 10.3815 60.007 10.3359 60.1086 10.2734C60.2102 10.2109 60.2609 10.1094 60.2609 9.96875V9.94141C60.2609 9.60026 60.1646 9.33594 59.9719 9.14844C59.7818 8.96094 59.4979 8.86719 59.1203 8.86719C58.7271 8.86719 58.4172 8.95443 58.1906 9.12891C57.9667 9.30078 57.8117 9.49219 57.7258 9.70312L56.6281 9.45312C56.7583 9.08854 56.9484 8.79427 57.1984 8.57031C57.451 8.34375 57.7414 8.17969 58.0695 8.07812C58.3977 7.97396 58.7427 7.92188 59.1047 7.92188C59.3443 7.92188 59.5982 7.95052 59.8664 8.00781C60.1372 8.0625 60.3898 8.16406 60.6242 8.3125C60.8612 8.46094 61.0552 8.67318 61.2062 8.94922C61.3573 9.22266 61.4328 9.57813 61.4328 10.0156V14H60.2922V13.1797H60.2453C60.1698 13.3307 60.0565 13.4792 59.9055 13.625C59.7544 13.7708 59.5604 13.8919 59.3234 13.9883C59.0865 14.0846 58.8026 14.1328 58.4719 14.1328ZM58.7258 13.1953C59.0487 13.1953 59.3247 13.1315 59.5539 13.0039C59.7857 12.8763 59.9615 12.7096 60.0812 12.5039C60.2036 12.2956 60.2648 12.0729 60.2648 11.8359V11.0625C60.2232 11.1042 60.1424 11.1432 60.0227 11.1797C59.9055 11.2135 59.7714 11.2435 59.6203 11.2695C59.4693 11.293 59.3221 11.3151 59.1789 11.3359C59.0357 11.3542 58.9159 11.3698 58.8195 11.3828C58.593 11.4115 58.3859 11.4596 58.1984 11.5273C58.0135 11.5951 57.8651 11.6927 57.7531 11.8203C57.6437 11.9453 57.5891 12.112 57.5891 12.3203C57.5891 12.6094 57.6958 12.8281 57.9094 12.9766C58.1229 13.1224 58.3951 13.1953 58.7258 13.1953ZM63.0985 14V8H64.2664V14H63.0985ZM63.6883 7.07422C63.4852 7.07422 63.3107 7.00651 63.1649 6.87109C63.0217 6.73307 62.95 6.56901 62.95 6.37891C62.95 6.1862 63.0217 6.02214 63.1649 5.88672C63.3107 5.7487 63.4852 5.67969 63.6883 5.67969C63.8914 5.67969 64.0646 5.7487 64.2079 5.88672C64.3537 6.02214 64.4266 6.1862 64.4266 6.37891C64.4266 6.56901 64.3537 6.73307 64.2079 6.87109C64.0646 7.00651 63.8914 7.07422 63.6883 7.07422ZM67.1157 10.4375V14H65.9477V8H67.0688V8.97656H67.143C67.2811 8.65885 67.4972 8.40365 67.7915 8.21094C68.0884 8.01823 68.4621 7.92188 68.9126 7.92188C69.3214 7.92188 69.6795 8.00781 69.9868 8.17969C70.2941 8.34896 70.5324 8.60156 70.7016 8.9375C70.8709 9.27344 70.9555 9.6888 70.9555 10.1836V14H69.7876V10.3242C69.7876 9.88932 69.6743 9.54948 69.4477 9.30469C69.2212 9.05729 68.91 8.93359 68.5141 8.93359C68.2433 8.93359 68.0024 8.99219 67.7915 9.10937C67.5832 9.22656 67.4178 9.39844 67.2954 9.625C67.1756 9.84896 67.1157 10.1198 67.1157 10.4375ZM74.378 14.1328C73.9978 14.1328 73.6541 14.0625 73.3468 13.9219C73.0395 13.7786 72.796 13.5716 72.6163 13.3008C72.4392 13.0299 72.3507 12.6979 72.3507 12.3047C72.3507 11.9661 72.4158 11.6875 72.546 11.4687C72.6762 11.25 72.852 11.0768 73.0734 10.9492C73.2947 10.8216 73.5421 10.7253 73.8155 10.6602C74.089 10.5951 74.3676 10.5456 74.6515 10.5117C75.0109 10.4701 75.3025 10.4362 75.5265 10.4102C75.7504 10.3815 75.9132 10.3359 76.0148 10.2734C76.1163 10.2109 76.1671 10.1094 76.1671 9.96875V9.94141C76.1671 9.60026 76.0708 9.33594 75.878 9.14844C75.6879 8.96094 75.4041 8.86719 75.0265 8.86719C74.6333 8.86719 74.3234 8.95443 74.0968 9.12891C73.8728 9.30078 73.7179 9.49219 73.632 9.70312L72.5343 9.45312C72.6645 9.08854 72.8546 8.79427 73.1046 8.57031C73.3572 8.34375 73.6476 8.17969 73.9757 8.07812C74.3038 7.97396 74.6489 7.92188 75.0109 7.92188C75.2504 7.92188 75.5044 7.95052 75.7726 8.00781C76.0434 8.0625 76.296 8.16406 76.5304 8.3125C76.7674 8.46094 76.9614 8.67318 77.1124 8.94922C77.2635 9.22266 77.339 9.57813 77.339 10.0156V14H76.1984V13.1797H76.1515C76.076 13.3307 75.9627 13.4792 75.8116 13.625C75.6606 13.7708 75.4666 13.8919 75.2296 13.9883C74.9926 14.0846 74.7088 14.1328 74.378 14.1328ZM74.632 13.1953C74.9549 13.1953 75.2309 13.1315 75.4601 13.0039C75.6919 12.8763 75.8676 12.7096 75.9874 12.5039C76.1098 12.2956 76.171 12.0729 76.171 11.8359V11.0625C76.1294 11.1042 76.0486 11.1432 75.9288 11.1797C75.8116 11.2135 75.6775 11.2435 75.5265 11.2695C75.3754 11.293 75.2283 11.3151 75.0851 11.3359C74.9419 11.3542 74.8221 11.3698 74.7257 11.3828C74.4991 11.4115 74.2921 11.4596 74.1046 11.5273C73.9197 11.5951 73.7713 11.6927 73.6593 11.8203C73.5499 11.9453 73.4952 12.112 73.4952 12.3203C73.4952 12.6094 73.602 12.8281 73.8155 12.9766C74.0291 13.1224 74.3012 13.1953 74.632 13.1953ZM79.0984 14V6H80.2664V8.97266H80.3367C80.4044 8.84766 80.502 8.70312 80.6297 8.53906C80.7573 8.375 80.9343 8.23177 81.1609 8.10937C81.3875 7.98438 81.6869 7.92188 82.0593 7.92188C82.5437 7.92188 82.976 8.04427 83.3562 8.28906C83.7364 8.53385 84.0346 8.88672 84.2507 9.34766C84.4695 9.80859 84.5789 10.3633 84.5789 11.0117C84.5789 11.6602 84.4708 12.2161 84.2547 12.6797C84.0385 13.1406 83.7416 13.4961 83.364 13.7461C82.9864 13.9935 82.5554 14.1172 82.0711 14.1172C81.7065 14.1172 81.4083 14.056 81.1765 13.9336C80.9474 13.8112 80.7677 13.668 80.6375 13.5039C80.5073 13.3398 80.407 13.194 80.3367 13.0664H80.239V14H79.0984ZM80.2429 11C80.2429 11.4219 80.3041 11.7917 80.4265 12.1094C80.5489 12.4271 80.726 12.6758 80.9578 12.8555C81.1895 13.0326 81.4734 13.1211 81.8093 13.1211C82.1583 13.1211 82.45 13.0286 82.6843 12.8437C82.9187 12.6562 83.0958 12.4023 83.2156 12.082C83.338 11.7617 83.3992 11.401 83.3992 11C83.3992 10.6042 83.3393 10.2487 83.2195 9.93359C83.1023 9.61849 82.9252 9.36979 82.6882 9.1875C82.4539 9.00521 82.1609 8.91406 81.8093 8.91406C81.4708 8.91406 81.1843 9.0013 80.95 9.17578C80.7182 9.35026 80.5424 9.59375 80.4226 9.90625C80.3028 10.2187 80.2429 10.5833 80.2429 11ZM86.0004 14V8H87.1684V14H86.0004ZM86.5902 7.07422C86.3871 7.07422 86.2126 7.00651 86.0668 6.87109C85.9236 6.73307 85.852 6.56901 85.852 6.37891C85.852 6.1862 85.9236 6.02214 86.0668 5.88672C86.2126 5.7487 86.3871 5.67969 86.5902 5.67969C86.7934 5.67969 86.9665 5.7487 87.1098 5.88672C87.2556 6.02214 87.3285 6.1862 87.3285 6.37891C87.3285 6.56901 87.2556 6.73307 87.1098 6.87109C86.9665 7.00651 86.7934 7.07422 86.5902 7.07422ZM90.0176 6V14H88.8496V6H90.0176ZM91.6989 14V8H92.8669V14H91.6989ZM92.2887 7.07422C92.0856 7.07422 91.9111 7.00651 91.7653 6.87109C91.6221 6.73307 91.5505 6.56901 91.5505 6.37891C91.5505 6.1862 91.6221 6.02214 91.7653 5.88672C91.9111 5.7487 92.0856 5.67969 92.2887 5.67969C92.4919 5.67969 92.6651 5.7487 92.8083 5.88672C92.9541 6.02214 93.027 6.1862 93.027 6.37891C93.027 6.56901 92.9541 6.73307 92.8083 6.87109C92.6651 7.00651 92.4919 7.07422 92.2887 7.07422ZM97.3489 8V8.9375H94.0716V8H97.3489ZM94.9505 6.5625H96.1185V12.2383C96.1185 12.4648 96.1523 12.6354 96.22 12.75C96.2877 12.862 96.375 12.9388 96.4818 12.9805C96.5911 13.0195 96.7096 13.0391 96.8372 13.0391C96.931 13.0391 97.013 13.0326 97.0833 13.0195C97.1536 13.0065 97.2083 12.9961 97.2474 12.9883L97.4583 13.9531C97.3906 13.9792 97.2943 14.0052 97.1693 14.0313C97.0443 14.0599 96.888 14.0755 96.7005 14.0781C96.3932 14.0833 96.1068 14.0286 95.8411 13.9141C95.5755 13.7995 95.3607 13.6224 95.1966 13.3828C95.0325 13.1432 94.9505 12.8424 94.9505 12.4805V6.5625ZM99.4892 16.25C99.3147 16.25 99.1559 16.2357 99.0127 16.207C98.8694 16.181 98.7627 16.1523 98.6923 16.1211L98.9736 15.1641C99.1871 15.2214 99.3772 15.2461 99.5439 15.2383C99.7106 15.2305 99.8577 15.168 99.9853 15.0508C100.116 14.9336 100.23 14.7422 100.329 14.4766L100.474 14.0781L98.2783 8H99.5283L101.048 12.6562H101.11L102.63 8H103.884L101.411 14.8008C101.297 15.1133 101.151 15.3776 100.974 15.5938C100.797 15.8125 100.586 15.9766 100.341 16.0859C100.096 16.1953 99.8121 16.25 99.4892 16.25Z" fill="white"/>
</g>
<g clip-path="url(#clip1_4001_2809)">
<rect width="24" height="20" transform="translate(113)" fill="#EAB308"/>
<g style="mix-blend-mode:plus-darker">
<rect x="113" width="24" height="20" fill="url(#paint1_linear_4001_2809)"/>
</g>
<g style="mix-blend-mode:overlay" opacity="0.2">
<rect x="113" width="1" height="20" fill="white"/>
</g>
<g style="mix-blend-mode:overlay" opacity="0.2">
<rect x="114" width="23" height="1" fill="white"/>
</g>
<g filter="url(#filter1_d_4001_2809)">
<path d="M128.618 8.80078H126.907C126.876 8.57943 126.812 8.38281 126.716 8.21094C126.619 8.03646 126.496 7.88802 126.345 7.76562C126.194 7.64323 126.019 7.54948 125.821 7.48437C125.626 7.41927 125.414 7.38672 125.185 7.38672C124.771 7.38672 124.41 7.48958 124.103 7.69531C123.795 7.89844 123.557 8.19531 123.388 8.58594C123.218 8.97396 123.134 9.44531 123.134 10C123.134 10.5703 123.218 11.0495 123.388 11.4375C123.56 11.8255 123.799 12.1185 124.106 12.3164C124.414 12.5143 124.769 12.6133 125.173 12.6133C125.399 12.6133 125.609 12.5833 125.802 12.5234C125.997 12.4635 126.17 12.3763 126.321 12.2617C126.472 12.1445 126.597 12.0026 126.696 11.8359C126.798 11.6693 126.868 11.4792 126.907 11.2656L128.618 11.2734C128.574 11.6406 128.463 11.9948 128.286 12.3359C128.112 12.6745 127.876 12.9779 127.579 13.2461C127.285 13.5117 126.933 13.7227 126.524 13.8789C126.118 14.0326 125.659 14.1094 125.146 14.1094C124.432 14.1094 123.794 13.9479 123.231 13.625C122.672 13.3021 122.229 12.8346 121.903 12.2227C121.58 11.6107 121.419 10.8698 121.419 10C121.419 9.1276 121.583 8.38542 121.911 7.77344C122.239 7.16146 122.685 6.69531 123.247 6.375C123.81 6.05208 124.442 5.89062 125.146 5.89062C125.609 5.89062 126.039 5.95573 126.435 6.08594C126.833 6.21615 127.186 6.40625 127.493 6.65625C127.8 6.90365 128.05 7.20703 128.243 7.56641C128.438 7.92578 128.563 8.33724 128.618 8.80078Z" fill="white"/>
</g>
</g>
<g style="mix-blend-mode:overlay" opacity="0.2">
<rect width="108" height="1" fill="white"/>
</g>
</g>
<defs>
<filter id="filter0_d_4001_2809" x="26.7852" y="5.67969" width="77.0986" height="11.5703" filterUnits="userSpaceOnUse" color-interpolation-filters="sRGB">
<feFlood flood-opacity="0" result="BackgroundImageFix"/>
<feColorMatrix in="SourceAlpha" type="matrix" values="0 0 0 0 0 0 0 0 0 0 0 0 0 0 0 0 0 0 127 0" result="hardAlpha"/>
<feOffset dy="1"/>
<feComposite in2="hardAlpha" operator="out"/>
<feColorMatrix type="matrix" values="0 0 0 0 0 0 0 0 0 0 0 0 0 0 0 0 0 0 0.2 0"/>
<feBlend mode="normal" in2="BackgroundImageFix" result="effect1_dropShadow_4001_2809"/>
<feBlend mode="normal" in="SourceGraphic" in2="effect1_dropShadow_4001_2809" result="shape"/>
</filter>
<filter id="filter1_d_4001_2809" x="121.419" y="5.89062" width="7.19922" height="9.21875" filterUnits="userSpaceOnUse" color-interpolation-filters="sRGB">
<feFlood flood-opacity="0" result="BackgroundImageFix"/>
<feColorMatrix in="SourceAlpha" type="matrix" values="0 0 0 0 0 0 0 0 0 0 0 0 0 0 0 0 0 0 127 0" result="hardAlpha"/>
<feOffset dy="1"/>
<feComposite in2="hardAlpha" operator="out"/>
<feColorMatrix type="matrix" values="0 0 0 0 0 0 0 0 0 0 0 0 0 0 0 0 0 0 0.07 0"/>
<feBlend mode="normal" in2="BackgroundImageFix" result="effect1_dropShadow_4001_2809"/>
<feBlend mode="normal" in="SourceGraphic" in2="effect1_dropShadow_4001_2809" result="shape"/>
</filter>
<linearGradient id="paint0_linear_4001_2809" x1="68.5" y1="20" x2="68.5" y2="0" gradientUnits="userSpaceOnUse">
<stop stop-color="#334155"/>
<stop offset="1" stop-color="#475569"/>
</linearGradient>
<linearGradient id="paint1_linear_4001_2809" x1="125" y1="20" x2="125" y2="0" gradientUnits="userSpaceOnUse">
<stop stop-opacity="0.06"/>
<stop offset="0.5" stop-opacity="0"/>
</linearGradient>
<clipPath id="clip0_4001_2809">
<rect width="137" height="20" rx="3" fill="white"/>
</clipPath>
<clipPath id="clip1_4001_2809">
<rect width="24" height="20" fill="white" transform="translate(113)"/>
</clipPath>
</defs>
</svg>
