<svg
  width="120"
  height="20"
  xmlns="http://www.w3.org/2000/svg">
  <defs>
    <linearGradient
      id="a"
      x1="0"
      y1="0"
      x2="0"
      y2="1"
      gradientUnits="userSpaceOnUse"
      gradientTransform="matrix(120 0 0 20 -0 0)">
      <stop
        offset="0"
        stop-color="#bbbbbb"
        stop-opacity="0.1"/>
      <stop
        offset="1"
        stop-color="#000000"
        stop-opacity="0.1"/>
    </linearGradient>
  </defs>
  <path
    fill="#555555"
    stroke="none"
    d="M 3 0 L 117 0 C 118.65685 0 120 1.3431457 120 3 L 120 17 C 120 18.656855 118.65685 20 117 20 L 3 20 C 1.3431457 20 0 18.656855 0 17 L 0 3 C -0 1.3431457 1.3431457 0 3 0 Z"/>
  <path
    fill="#44cc11"
    stroke="none"
    d="M 84 0 L 117 0 C 118.65685 0 120 1.3431457 120 3 L 120 17 C 120 18.656855 118.65685 20 117 20 L 84 20 C 82.34315 20 81 18.656855 81 17 L 81 3 C 81 1.3431457 82.34315 0 84 0 Z"/>
  <path
    fill="#44cc11"
    stroke="none"
    d="M 81 0 L 94 0 L 94 20 L 81 20 Z"/>
  <path
    fill="url(#a)"
    stroke="none"
    d="M 3 0 L 117 0 C 118.65685 0 120 1.3431457 120 3 L 120 17 C 120 18.656855 118.65685 20 117 20 L 3 20 C 1.3431457 20 0 18.656855 0 17 L 0 3 C -0 1.3431457 1.3431457 0 3 0 Z"/>
  <g>
    <g
      id="tBack">
      <path
        fill="#010101"
        fill-opacity="0.3"
        stroke="#010101"
        stroke-opacity="0.101960786"
        stroke-width="0.3"
        d="M 10.995117 11.922363 Q 10.995117 10.848145 10.552002 10.257324 Q 10.108887 9.666504 9.308594 9.666504 Q 8.513672 9.666504 8.070557 10.257324 Q 7.6274414 10.848145 7.6274414 11.922363 Q 7.6274414 12.991212 8.070557 13.582031 Q 8.513672 14.172852 9.308594 14.172852 Q 10.108887 14.172852 10.552002 13.582031 Q 10.995117 12.991212 10.995117 11.922363 Z M 11.983398 14.253418 Q 11.983398 15.789552 11.30127 16.538818 Q 10.619141 17.288086 9.211914 17.288086 Q 8.690918 17.288086 8.229004 17.210205 Q 7.76709 17.132324 7.3320313 16.971191 L 7.3320313 16.009766 Q 7.76709 16.246094 8.191406 16.358887 Q 8.615723 16.47168 9.056152 16.47168 Q 10.02832 16.47168 10.511719 15.964111 Q 10.995117 15.456543 10.995117 14.430664 L 10.995117 13.941895 Q 10.688965 14.473633 10.2109375 14.736816 Q 9.73291 15 9.066895 15 Q 7.960449 15 7.2836914 14.156738 Q 6.6069336 13.3134775 6.6069336 11.922363 Q 6.6069336 10.525879 7.2836914 9.682617 Q 7.960449 8.839355 9.066895 8.839355 Q 9.73291 8.839355 10.2109375 9.102539 Q 10.688965 9.365723 10.995117 9.897461 L 10.995117 8.984375 L 11.983398 8.984375 L 11.983398 14.253418 Z M 19.16455 11.745117 L 19.16455 12.228516 L 14.620605 12.228516 Q 14.685059 13.249024 15.235596 13.783447 Q 15.786133 14.317871 16.769043 14.317871 Q 17.338379 14.317871 17.872803 14.178222 Q 18.407227 14.038574 18.933594 13.759276 L 18.933594 14.693847 Q 18.401855 14.919433 17.843262 15.037598 Q 17.284668 15.155762 16.70996 15.155762 Q 15.270508 15.155762 14.429932 14.317871 Q 13.589355 13.47998 13.589355 12.05127 Q 13.589355 10.574219 14.386963 9.706787 Q 15.184571 8.839355 16.538086 8.839355 Q 17.751953 8.839355 18.458252 9.62085 Q 19.16455 10.402344 19.16455 11.745117 Z M 18.17627 11.455078 Q 18.165527 10.644043 17.722412 10.160645 Q 17.279297 9.677246 16.548828 9.677246 Q 15.72168 9.677246 15.2248535 10.144531 Q 14.728027 10.611816 14.652832 11.460449 L 18.17627 11.455078 Z M 25.470215 10.13916 Q 25.840818 9.473145 26.356443 9.15625 Q 26.872068 8.839355 27.570313 8.839355 Q 28.510254 8.839355 29.020508 9.497314 Q 29.530762 10.155273 29.530762 11.369141 L 29.530762 15 L 28.53711 15 L 28.53711 11.401367 Q 28.53711 10.536621 28.230959 10.117676 Q 27.924805 9.69873 27.296387 9.69873 Q 26.52832 9.69873 26.08252 10.208984 Q 25.636719 10.719238 25.636719 11.600098 L 25.636719 15 L 24.643066 15 L 24.643066 11.401367 Q 24.643066 10.53125 24.336914 10.11499 Q 24.030762 9.69873 23.391602 9.69873 Q 22.63428 9.69873 22.188477 10.21167 Q 21.742676 10.724609 21.742676 11.600098 L 21.742676 15 L 20.749023 15 L 20.749023 8.984375 L 21.742676 8.984375 L 21.742676 9.918945 Q 22.081055 9.365723 22.55371 9.102539 Q 23.026367 8.839355 23.67627 8.839355 Q 24.331543 8.839355 24.790771 9.172363 Q 25.25 9.505371 25.470215 10.13916 Z M 34.28955 8.984375 L 35.336914 8.984375 L 37.216797 14.033203 L 39.09668 8.984375 L 40.144043 8.984375 L 37.888184 15 L 36.54541 15 L 34.28955 8.984375 Z M 46.65381 11.745117 L 46.65381 12.228516 L 42.109863 12.228516 Q 42.174316 13.249024 42.724854 13.783447 Q 43.27539 14.317871 44.2583 14.317871 Q 44.827637 14.317871 45.362057 14.178222 Q 45.896484 14.038574 46.42285 13.759276 L 46.42285 14.693847 Q 45.891113 14.919433 45.33252 15.037598 Q 44.773922 15.155762 44.19922 15.155762 Q 42.759766 15.155762 41.91919 14.317871 Q 41.078613 13.47998 41.078613 12.05127 Q 41.078613 10.574219 41.87622 9.706787 Q 42.67383 8.839355 44.027348 8.839355 Q 45.24121 8.839355 45.94751 9.62085 Q 46.65381 10.402344 46.65381 11.745117 Z M 45.665527 11.455078 Q 45.654785 10.644043 45.21167 10.160645 Q 44.768555 9.677246 44.038086 9.677246 Q 43.210938 9.677246 42.71411 10.144531 Q 42.217285 10.611816 42.14209 11.460449 L 45.665527 11.455078 Z M 51.76172 9.908203 Q 51.59521 9.811523 51.399166 9.765869 Q 51.203125 9.720215 50.9668 9.720215 Q 50.128906 9.720215 49.68042 10.265381 Q 49.231934 10.810547 49.231934 11.831054 L 49.231934 15 L 48.23828 15 L 48.23828 8.984375 L 49.231934 8.984375 L 49.231934 9.918945 Q 49.543453 9.371094 50.04297 9.105225 Q 50.54248 8.839355 51.256836 8.839355 Q 51.35889 8.839355 51.482426 8.852783 Q 51.605953 8.866211 51.756348 8.893066 L 51.76172 9.908203 Z M 56.633305 9.161621 L 56.633305 10.096191 Q 56.214355 9.881348 55.763184 9.773926 Q 55.31201 9.666504 54.828617 9.666504 Q 54.092773 9.666504 53.72485 9.89209 Q 53.356934 10.117676 53.356934 10.568848 Q 53.356934 10.912598 53.620117 11.108643 Q 53.8833 11.3046875 54.678223 11.481935 L 55.0166 11.557129 Q 56.069336 11.782715 56.51245 12.1936035 Q 56.955566 12.604493 56.955566 13.340331 Q 56.955566 14.178222 56.292233 14.666992 Q 55.628906 15.155762 54.46875 15.155762 Q 53.98535 15.155762 53.461666 15.061768 Q 52.93799 14.967773 52.35791 14.779785 L 52.35791 13.759276 Q 52.905766 14.043945 53.4375 14.186279 Q 53.96924 14.328613 54.490234 14.328613 Q 55.188477 14.328613 55.564453 14.0896 Q 55.94043 13.850586 55.94043 13.415527 Q 55.94043 13.012695 55.669193 12.7978525 Q 55.39795 12.583008 54.479492 12.384277 L 54.135742 12.303711 Q 53.217285 12.110352 52.809082 11.710205 Q 52.40088 11.310059 52.40088 10.611816 Q 52.40088 9.763184 53.00244 9.30127 Q 53.604004 8.839355 54.710453 8.839355 Q 55.2583 8.839355 55.7417 8.919922 Q 56.225094 9.000488 56.633305 9.161621 Z M 58.529297 8.984375 L 59.51758 8.984375 L 59.51758 15 L 58.529297 15 L 58.529297 8.984375 Z M 58.529297 6.642578 L 59.51758 6.642578 L 59.51758 7.894043 L 58.529297 7.894043 L 58.529297 6.642578 Z M 63.916504 9.677246 Q 63.121582 9.677246 62.659664 10.297607 Q 62.197754 10.917969 62.197754 11.997559 Q 62.197754 13.077148 62.656982 13.697511 Q 63.11621 14.317871 63.916504 14.317871 Q 64.706055 14.317871 65.16797 13.694823 Q 65.62988 13.071777 65.62988 11.997559 Q 65.62988 10.92871 65.16797 10.3029785 Q 64.706055 9.677246 63.916504 9.677246 Z M 63.916504 8.839355 Q 65.20557 8.839355 65.94141 9.677246 Q 66.677246 10.515137 66.677246 11.997559 Q 66.677246 13.47461 65.94141 14.315186 Q 65.20557 15.155762 63.916504 15.155762 Q 62.62207 15.155762 61.888916 14.315186 Q 61.15576 13.47461 61.15576 11.997559 Q 61.15576 10.515137 61.888916 9.677246 Q 62.62207 8.839355 63.916504 8.839355 Z M 73.31592 11.369141 L 73.31592 15 L 72.32764 15 L 72.32764 11.401367 Q 72.32764 10.547363 71.99463 10.123047 Q 71.66162 9.69873 70.995605 9.69873 Q 70.19531 9.69873 69.7334 10.208984 Q 69.271484 10.719238 69.271484 11.600098 L 69.271484 15 L 68.27783 15 L 68.27783 8.984375 L 69.271484 8.984375 L 69.271484 9.918945 Q 69.62598 9.376465 70.10669 9.10791 Q 70.5874 8.839355 71.21582 8.839355 Q 72.25244 8.839355 72.78418 9.481201 Q 73.31592 10.123047 73.31592 11.369141 Z"/>
    </g>
    <g
      id="tText">
      <path
        fill="#ffffff"
        stroke="#ffffff"
        stroke-width="0.3"
        d="M 10.995117 10.922363 Q 10.995117 9.848145 10.552002 9.257324 Q 10.108887 8.666504 9.308594 8.666504 Q 8.513672 8.666504 8.070557 9.257324 Q 7.6274414 9.848145 7.6274414 10.922363 Q 7.6274414 11.991212 8.070557 12.582031 Q 8.513672 13.172852 9.308594 13.172852 Q 10.108887 13.172852 10.552002 12.582031 Q 10.995117 11.991212 10.995117 10.922363 Z M 11.983398 13.253418 Q 11.983398 14.789552 11.30127 15.538818 Q 10.619141 16.288086 9.211914 16.288086 Q 8.690918 16.288086 8.229004 16.210205 Q 7.76709 16.132324 7.3320313 15.971191 L 7.3320313 15.009765 Q 7.76709 15.246094 8.191406 15.358887 Q 8.615723 15.47168 9.056152 15.47168 Q 10.02832 15.47168 10.511719 14.964111 Q 10.995117 14.456543 10.995117 13.430664 L 10.995117 12.941895 Q 10.688965 13.473633 10.2109375 13.736816 Q 9.73291 14 9.066895 14 Q 7.960449 14 7.2836914 13.156738 Q 6.6069336 12.3134775 6.6069336 10.922363 Q 6.6069336 9.525879 7.2836914 8.682617 Q 7.960449 7.8393555 9.066895 7.8393555 Q 9.73291 7.8393555 10.2109375 8.102539 Q 10.688965 8.365723 10.995117 8.897461 L 10.995117 7.984375 L 11.983398 7.984375 L 11.983398 13.253418 Z M 19.16455 10.745117 L 19.16455 11.228516 L 14.620605 11.228516 Q 14.685059 12.249024 15.235596 12.783447 Q 15.786133 13.317871 16.769043 13.317871 Q 17.338379 13.317871 17.872803 13.178222 Q 18.407227 13.038574 18.933594 12.759276 L 18.933594 13.693847 Q 18.401855 13.919433 17.843262 14.037598 Q 17.284668 14.155762 16.70996 14.155762 Q 15.270508 14.155762 14.429932 13.317871 Q 13.589355 12.47998 13.589355 11.05127 Q 13.589355 9.574219 14.386963 8.706787 Q 15.184571 7.8393555 16.538086 7.8393555 Q 17.751953 7.8393555 18.458252 8.62085 Q 19.16455 9.402344 19.16455 10.745117 Z M 18.17627 10.455078 Q 18.165527 9.644043 17.722412 9.160645 Q 17.279297 8.677246 16.548828 8.677246 Q 15.72168 8.677246 15.2248535 9.144531 Q 14.728027 9.611816 14.652832 10.460449 L 18.17627 10.455078 Z M 25.470215 9.13916 Q 25.840818 8.473145 26.356443 8.15625 Q 26.872068 7.8393555 27.570313 7.8393555 Q 28.510254 7.8393555 29.020508 8.497314 Q 29.530762 9.155273 29.530762 10.369141 L 29.530762 14 L 28.53711 14 L 28.53711 10.401367 Q 28.53711 9.536621 28.230959 9.117676 Q 27.924805 8.69873 27.296387 8.69873 Q 26.52832 8.69873 26.08252 9.208984 Q 25.636719 9.719238 25.636719 10.600098 L 25.636719 14 L 24.643066 14 L 24.643066 10.401367 Q 24.643066 9.53125 24.336914 9.11499 Q 24.030762 8.69873 23.391602 8.69873 Q 22.63428 8.69873 22.188477 9.21167 Q 21.742676 9.724609 21.742676 10.600098 L 21.742676 14 L 20.749023 14 L 20.749023 7.984375 L 21.742676 7.984375 L 21.742676 8.918945 Q 22.081055 8.365723 22.55371 8.102539 Q 23.026367 7.8393555 23.67627 7.8393555 Q 24.331543 7.8393555 24.790771 8.172363 Q 25.25 8.505371 25.470215 9.13916 Z M 34.28955 7.984375 L 35.336914 7.984375 L 37.216797 13.033203 L 39.09668 7.984375 L 40.144043 7.984375 L 37.888184 14 L 36.54541 14 L 34.28955 7.984375 Z M 46.65381 10.745117 L 46.65381 11.228516 L 42.109863 11.228516 Q 42.174316 12.249024 42.724854 12.783447 Q 43.27539 13.317871 44.2583 13.317871 Q 44.827637 13.317871 45.362057 13.178222 Q 45.896484 13.038574 46.42285 12.759276 L 46.42285 13.693847 Q 45.891113 13.919433 45.33252 14.037598 Q 44.773922 14.155762 44.19922 14.155762 Q 42.759766 14.155762 41.91919 13.317871 Q 41.078613 12.47998 41.078613 11.05127 Q 41.078613 9.574219 41.87622 8.706787 Q 42.67383 7.8393555 44.027348 7.8393555 Q 45.24121 7.8393555 45.94751 8.62085 Q 46.65381 9.402344 46.65381 10.745117 Z M 45.665527 10.455078 Q 45.654785 9.644043 45.21167 9.160645 Q 44.768555 8.677246 44.038086 8.677246 Q 43.210938 8.677246 42.71411 9.144531 Q 42.217285 9.611816 42.14209 10.460449 L 45.665527 10.455078 Z M 51.76172 8.908203 Q 51.59521 8.811523 51.399166 8.765869 Q 51.203125 8.720215 50.9668 8.720215 Q 50.128906 8.720215 49.68042 9.265381 Q 49.231934 9.810547 49.231934 10.831054 L 49.231934 14 L 48.23828 14 L 48.23828 7.984375 L 49.231934 7.984375 L 49.231934 8.918945 Q 49.543453 8.371094 50.04297 8.105225 Q 50.54248 7.8393555 51.256836 7.8393555 Q 51.35889 7.8393555 51.482426 7.852783 Q 51.605953 7.8662114 51.756348 7.8930664 L 51.76172 8.908203 Z M 56.633305 8.161621 L 56.633305 9.096191 Q 56.214355 8.881348 55.763184 8.773926 Q 55.31201 8.666504 54.828617 8.666504 Q 54.092773 8.666504 53.72485 8.89209 Q 53.356934 9.117676 53.356934 9.568848 Q 53.356934 9.912598 53.620117 10.108643 Q 53.8833 10.3046875 54.678223 10.481934 L 55.0166 10.557129 Q 56.069336 10.782715 56.51245 11.1936035 Q 56.955566 11.604493 56.955566 12.340331 Q 56.955566 13.178222 56.292233 13.666992 Q 55.628906 14.155762 54.46875 14.155762 Q 53.98535 14.155762 53.461666 14.061768 Q 52.93799 13.967773 52.35791 13.779785 L 52.35791 12.759276 Q 52.905766 13.043945 53.4375 13.186279 Q 53.96924 13.328613 54.490234 13.328613 Q 55.188477 13.328613 55.564453 13.0896 Q 55.94043 12.850586 55.94043 12.415527 Q 55.94043 12.012695 55.669193 11.7978525 Q 55.39795 11.583008 54.479492 11.384277 L 54.135742 11.303711 Q 53.217285 11.110352 52.809082 10.710205 Q 52.40088 10.310059 52.40088 9.611816 Q 52.40088 8.763184 53.00244 8.30127 Q 53.604004 7.8393555 54.710453 7.8393555 Q 55.2583 7.8393555 55.7417 7.919922 Q 56.225094 8.000488 56.633305 8.161621 Z M 58.529297 7.984375 L 59.51758 7.984375 L 59.51758 14 L 58.529297 14 L 58.529297 7.984375 Z M 58.529297 5.642578 L 59.51758 5.642578 L 59.51758 6.894043 L 58.529297 6.894043 L 58.529297 5.642578 Z M 63.916504 8.677246 Q 63.121582 8.677246 62.659664 9.297607 Q 62.197754 9.917969 62.197754 10.997559 Q 62.197754 12.077148 62.656982 12.697511 Q 63.11621 13.317871 63.916504 13.317871 Q 64.706055 13.317871 65.16797 12.694823 Q 65.62988 12.071777 65.62988 10.997559 Q 65.62988 9.928711 65.16797 9.3029785 Q 64.706055 8.677246 63.916504 8.677246 Z M 63.916504 7.8393555 Q 65.20557 7.8393555 65.94141 8.677246 Q 66.677246 9.515137 66.677246 10.997559 Q 66.677246 12.47461 65.94141 13.315186 Q 65.20557 14.155762 63.916504 14.155762 Q 62.62207 14.155762 61.888916 13.315186 Q 61.15576 12.47461 61.15576 10.997559 Q 61.15576 9.515137 61.888916 8.677246 Q 62.62207 7.8393555 63.916504 7.8393555 Z M 73.31592 10.369141 L 73.31592 14 L 72.32764 14 L 72.32764 10.401367 Q 72.32764 9.547363 71.99463 9.123047 Q 71.66162 8.69873 70.995605 8.69873 Q 70.19531 8.69873 69.7334 9.208984 Q 69.271484 9.719238 69.271484 10.600098 L 69.271484 14 L 68.27783 14 L 68.27783 7.984375 L 69.271484 7.984375 L 69.271484 8.918945 Q 69.62598 8.376465 70.10669 8.10791 Q 70.5874 7.8393555 71.21582 7.8393555 Q 72.25244 7.8393555 72.78418 8.481201 Q 73.31592 9.123047 73.31592 10.369141 Z"/>
    </g>
  </g>
  <g>
    <g
      id="vBack">
      <path
        fill="#010101"
        fill-opacity="0.3"
        stroke="#010101"
        stroke-opacity="0.101960786"
        stroke-width="0.3"
        d="M 90.15723 7.9262695 L 87.41797 12.207031 L 90.15723 12.207031 L 90.15723 7.9262695 Z M 89.87256 6.980957 L 91.23682 6.980957 L 91.23682 12.207031 L 92.38086 12.207031 L 92.38086 13.109375 L 91.23682 13.109375 L 91.23682 15 L 90.15723 15 L 90.15723 13.109375 L 86.53712 13.109375 L 86.53712 12.062012 L 89.87256 6.980957 Z M 94.174805 13.635743 L 95.308105 13.635743 L 95.308105 15 L 94.174805 15 L 94.174805 13.635743 Z M 98.60596 14.086915 L 102.39258 14.086915 L 102.39258 15 L 97.30077 15 L 97.30077 14.086915 Q 97.91846 13.447754 98.98462 12.37085 Q 100.05078 11.293945 100.32471 10.982422 Q 100.8457 10.396973 101.05249 9.991455 Q 101.25928 9.5859375 101.25928 9.193848 Q 101.25928 8.5546875 100.81079 8.151855 Q 100.362305 7.7490234 99.642586 7.7490234 Q 99.132324 7.7490234 98.565674 7.9262695 Q 97.99902 8.103516 97.35449 8.463379 L 97.35449 7.3676753 Q 98.009766 7.104492 98.579094 6.970215 Q 99.148445 6.8359375 99.621086 6.8359375 Q 100.86719 6.8359375 101.6084 7.4589844 Q 102.34961 8.082031 102.34961 9.124023 Q 102.34961 9.618164 102.16431 10.061279 Q 101.979004 10.504395 101.490234 11.105957 Q 101.35596 11.261719 100.63623 12.005615 Q 99.916504 12.749512 98.60596 14.086915 Z M 104.66992 13.635743 L 105.80322 13.635743 L 105.80322 15 L 104.66992 15 L 104.66992 13.635743 Z M 111.45361 10.67627 Q 112.232414 10.842773 112.670166 11.369141 Q 113.10791 11.895507 113.10791 12.668946 Q 113.10791 13.855956 112.291504 14.505859 Q 111.4751 15.155762 109.97119 15.155762 Q 109.46631 15.155762 108.931885 15.0563965 Q 108.39747 14.957031 107.828125 14.7583 L 107.828125 13.7109375 Q 108.2793 13.974121 108.81641 14.108398 Q 109.353516 14.242675 109.938965 14.242675 Q 110.95947 14.242675 111.4939 13.839844 Q 112.02832 13.437011 112.02832 12.668946 Q 112.02832 11.95996 111.53149 11.559814 Q 111.03467 11.159669 110.14844 11.159669 L 109.21387 11.159669 L 109.21387 10.268066 L 110.191414 10.268066 Q 110.9917 10.268066 111.416016 9.948486 Q 111.840324 9.628906 111.840324 9.027344 Q 111.840324 8.409668 111.40259 8.079346 Q 110.96485 7.7490234 110.14844 7.7490234 Q 109.70264 7.7490234 109.19238 7.845703 Q 108.68213 7.942383 108.069824 8.146484 L 108.069824 7.1796875 Q 108.6875 7.0078125 109.227295 6.921875 Q 109.76709 6.8359375 110.24512 6.8359375 Q 111.48048 6.8359375 112.200195 7.397217 Q 112.91992 7.958496 112.91992 8.914551 Q 112.91992 9.580566 112.538574 10.039795 Q 112.15723 10.499023 111.45361 10.67627 Z"/>
    </g>
    <g
      id="vText">
      <path
        fill="#ffffff"
        stroke="#ffffff"
        stroke-width="0.3"
        d="M 90.15723 6.9262695 L 87.41797 11.207031 L 90.15723 11.207031 L 90.15723 6.9262695 Z M 89.87256 5.980957 L 91.23682 5.980957 L 91.23682 11.207031 L 92.38086 11.207031 L 92.38086 12.109375 L 91.23682 12.109375 L 91.23682 14 L 90.15723 14 L 90.15723 12.109375 L 86.53712 12.109375 L 86.53712 11.062012 L 89.87256 5.980957 Z M 94.174805 12.635743 L 95.308105 12.635743 L 95.308105 14 L 94.174805 14 L 94.174805 12.635743 Z M 98.60596 13.086915 L 102.39258 13.086915 L 102.39258 14 L 97.30077 14 L 97.30077 13.086915 Q 97.91846 12.447754 98.98462 11.37085 Q 100.05078 10.293945 100.32471 9.982422 Q 100.8457 9.396973 101.05249 8.991455 Q 101.25928 8.5859375 101.25928 8.193848 Q 101.25928 7.5546875 100.81079 7.1518555 Q 100.362305 6.7490234 99.642586 6.7490234 Q 99.132324 6.7490234 98.565674 6.9262695 Q 97.99902 7.1035156 97.35449 7.4633794 L 97.35449 6.3676753 Q 98.009766 6.104492 98.579094 5.970215 Q 99.148445 5.8359375 99.621086 5.8359375 Q 100.86719 5.8359375 101.6084 6.4589844 Q 102.34961 7.0820313 102.34961 8.124023 Q 102.34961 8.618164 102.16431 9.061279 Q 101.979004 9.504395 101.490234 10.105957 Q 101.35596 10.261719 100.63623 11.005615 Q 99.916504 11.749512 98.60596 13.086915 Z M 104.66992 12.635743 L 105.80322 12.635743 L 105.80322 14 L 104.66992 14 L 104.66992 12.635743 Z M 111.45361 9.67627 Q 112.232414 9.842773 112.670166 10.369141 Q 113.10791 10.895507 113.10791 11.668946 Q 113.10791 12.855956 112.291504 13.505859 Q 111.4751 14.155762 109.97119 14.155762 Q 109.46631 14.155762 108.931885 14.0563965 Q 108.39747 13.957031 107.828125 13.7583 L 107.828125 12.7109375 Q 108.2793 12.974121 108.81641 13.108398 Q 109.353516 13.242675 109.938965 13.242675 Q 110.95947 13.242675 111.4939 12.839844 Q 112.02832 12.437011 112.02832 11.668946 Q 112.02832 10.95996 111.53149 10.559814 Q 111.03467 10.159668 110.14844 10.159668 L 109.21387 10.159668 L 109.21387 9.268066 L 110.191414 9.268066 Q 110.9917 9.268066 111.416016 8.948486 Q 111.840324 8.628906 111.840324 8.027344 Q 111.840324 7.409668 111.40259 7.0793457 Q 110.96485 6.7490234 110.14844 6.7490234 Q 109.70264 6.7490234 109.19238 6.845703 Q 108.68213 6.942383 108.069824 7.1464844 L 108.069824 6.1796875 Q 108.6875 6.0078125 109.227295 5.921875 Q 109.76709 5.8359375 110.24512 5.8359375 Q 111.48048 5.8359375 112.200195 6.397217 Q 112.91992 6.958496 112.91992 7.9145513 Q 112.91992 8.580566 112.538574 9.039795 Q 112.15723 9.499023 111.45361 9.67627 Z"/>
    </g>
  </g>
</svg>
